<mxfile host="Electron" modified="2024-05-06T04:03:58.381Z" agent="Mozilla/5.0 (X11; Linux x86_64) AppleWebKit/537.36 (KHTML, like Gecko) draw.io/24.2.5 Chrome/120.0.6099.109 Electron/28.1.0 Safari/537.36" etag="ZY1qc1ZhYVUjiDfqoWFo" version="24.2.5" type="device">
  <diagram name="PÃ¡gina-1" id="SSTfSLev_MAsyWErmeZv">
    <mxGraphModel dx="1364" dy="843" grid="1" gridSize="10" guides="1" tooltips="1" connect="1" arrows="1" fold="1" page="1" pageScale="1" pageWidth="827" pageHeight="1169" math="0" shadow="0">
      <root>
        <mxCell id="0" />
        <mxCell id="1" parent="0" />
        <mxCell id="oPoceIgw7BKPvkuK8iZX-1" value="Opciones Api" style="labelPosition=center;verticalLabelPosition=middle;align=center;html=1;shape=mxgraph.basic.shaded_button;dx=10;fillColor=#ffe6cc;strokeColor=#d79b00;whiteSpace=wrap;" parent="1" vertex="1">
          <mxGeometry x="470" y="230" width="100" height="60" as="geometry" />
        </mxCell>
        <mxCell id="oPoceIgw7BKPvkuK8iZX-4" style="edgeStyle=orthogonalEdgeStyle;rounded=0;orthogonalLoop=1;jettySize=auto;html=1;" parent="1" source="oPoceIgw7BKPvkuK8iZX-3" target="oPoceIgw7BKPvkuK8iZX-1" edge="1">
          <mxGeometry relative="1" as="geometry" />
        </mxCell>
        <mxCell id="oPoceIgw7BKPvkuK8iZX-3" value="server" style="shape=umlFrame;whiteSpace=wrap;html=1;pointerEvents=0;" parent="1" vertex="1">
          <mxGeometry x="270" y="230" width="100" height="60" as="geometry" />
        </mxCell>
        <mxCell id="oPoceIgw7BKPvkuK8iZX-5" value="langs" style="text;html=1;align=center;verticalAlign=middle;resizable=0;points=[];autosize=1;strokeColor=none;fillColor=none;fontColor=#006600;fontStyle=3" parent="1" vertex="1">
          <mxGeometry x="400" y="230" width="50" height="30" as="geometry" />
        </mxCell>
        <mxCell id="oPoceIgw7BKPvkuK8iZX-6" value="props:{&lt;div&gt;&lt;font color=&quot;#000099&quot;&gt;&amp;nbsp; &amp;nbsp; &amp;nbsp; &amp;nbsp; &amp;nbsp; &amp;nbsp; &amp;nbsp; &amp;nbsp; &amp;nbsp; &amp;nbsp; &amp;nbsp;langs=[]&lt;/font&gt;&lt;br&gt;&lt;div&gt;&amp;nbsp;}&lt;/div&gt;&lt;/div&gt;" style="text;html=1;align=center;verticalAlign=middle;resizable=0;points=[];autosize=1;strokeColor=none;fillColor=none;fontStyle=1;labelBorderColor=#994C00;" parent="1" vertex="1">
          <mxGeometry x="530" y="170" width="140" height="60" as="geometry" />
        </mxCell>
      </root>
    </mxGraphModel>
  </diagram>
</mxfile>
